<svg width="63" height="63" viewBox="0 0 63 63" fill="none" xmlns="http://www.w3.org/2000/svg">
<path d="M61.3103 56.3706V31.9287C61.3075 31.7662 61.2661 31.6068 61.1896 31.4635H61.2001L58.6297 26.3238C58.1005 25.2523 57.0076 24.5753 55.8125 24.5787H48.7104V23.5287C48.7103 23.2502 48.5996 22.9832 48.4027 22.7863L42.3604 17.4995C41.9825 17.1256 41.8727 17.07 41.3604 16.9282V9.23292L43.4604 8.66907V11.2122V11.2195C43.4592 12.2978 43.998 13.3049 44.8957 13.9023C45.2078 14.1105 45.6073 14.1363 45.9436 13.9701C46.28 13.8039 46.5021 13.4709 46.5264 13.0965C46.5506 12.7222 46.3733 12.3633 46.0612 12.1551C45.7479 11.9469 45.5598 11.5956 45.5603 11.2195V11.2122V8.01282C46.2953 7.5883 46.7025 6.76308 46.5922 5.9215C46.4819 5.07993 45.8759 4.38748 45.0564 4.16667L31.4001 0.500065C31.0465 0.405577 30.6742 0.405577 30.3207 0.500065L16.6644 4.16667C15.746 4.4174 15.1089 5.25167 15.1089 6.20367C15.1089 7.15566 15.746 7.98994 16.6644 8.24067L20.3604 9.23292V16.1787L20.2942 16.9282C19.3607 16.9287 18.9569 16.7815 18.3604 17.4995L13.2592 22.8567C13.1 23.0446 13.0119 23.2824 13.0104 23.5287V24.5787H5.90815C4.71402 24.5745 3.62141 25.2497 3.091 26.3196L0.520602 31.4593H0.531101C0.453982 31.6039 0.412579 31.7648 0.410352 31.9287V56.3706C-0.237237 56.7427 -0.637396 57.4318 -0.639648 58.1787V60.2787C-0.639648 61.4385 0.300553 62.3787 1.46035 62.3787H15.4023C15.7744 63.0263 16.4635 63.4264 17.2104 63.4287H44.5103C45.2572 63.4264 45.9463 63.0263 46.3185 62.3787H60.2603C61.4201 62.3787 62.3603 61.4385 62.3603 60.2787V58.1787C62.3581 57.4318 61.9579 56.7427 61.3103 56.3706ZM45.5603 56.0787H44.5103V32.9787L59.8604 32.9292V56.0787H45.5603ZM34.8604 56.0787H26.8604V43.9292H34.8604V56.0787ZM35.0603 42.4287H26.6604C26.0805 42.4287 25.6103 42.8988 25.6103 43.4787V56.0787H18.8604V32.9787H42.8604V56.0787H36.1104V43.4787C36.1104 42.8988 35.6402 42.4287 35.0603 42.4287ZM46.6103 24.5787V26.6787H15.1104V24.5787H46.6103ZM44.5103 28.7787V30.8787H17.2104V28.7787H44.5103ZM55.8125 26.6787C56.2106 26.6774 56.5747 26.9026 56.7513 27.2593L58.5614 30.8787H46.6103V28.7787C47.7701 28.7787 48.7104 27.8385 48.7104 26.6787H55.8125ZM30.8603 1.92822L44.5251 6.20367H44.8957L30.8603 10.4282L16.6644 6.20367L30.8603 1.92822ZM21.8604 9.42822L30.3207 11.9073C30.6742 12.0024 31.0465 12.0024 31.4001 11.9073L39.8604 9.42822V16.9282H21.8604V9.42822ZM19.4878 18.6567C19.6872 18.4173 19.9826 18.2788 20.2942 18.2787H40.4899C40.7687 18.2784 41.0362 18.3891 41.2333 18.5863L45.3604 22.7863L15.8604 22.8567L19.4878 18.6567ZM4.96945 27.2593C5.14604 26.9026 5.51013 26.6774 5.90815 26.6787H13.0104C13.0104 27.8385 13.9506 28.7787 15.1104 28.7787V30.8787H3.091L4.96945 27.2593ZM1.46035 58.1787H15.1104V60.2787H1.46035V58.1787ZM16.1604 56.0787L1.86035 55.9319V32.9787H17.2104V56.0787H16.1604ZM16.5669 61.3287V58.1787H45.132V61.3287H16.5669ZM60.8604 60.9292H46.6103V57.9995H60.8604V60.9292Z" fill="#000D7F"/>
<path d="M28.3498 34.6501C27.7699 34.6501 27.2998 35.1202 27.2998 35.7001V37.8001C27.2998 38.38 27.7699 38.8501 28.3498 38.8501C28.9297 38.8501 29.3998 38.38 29.3998 37.8001V35.7001C29.3998 35.1202 28.9297 34.6501 28.3498 34.6501Z" fill="#000D7F"/>
<path d="M13.6496 35.6997C13.0697 35.6997 12.5996 36.1698 12.5996 36.7497V38.8497C12.5996 39.4296 13.0697 39.8997 13.6496 39.8997C14.2295 39.8997 14.6996 39.4296 14.6996 38.8497V36.7497C14.6996 36.1698 14.2295 35.6997 13.6496 35.6997Z" fill="#000D7F"/>
<path d="M7.3498 35.6997C6.76991 35.6997 6.2998 36.1698 6.2998 36.7497V38.8497C6.2998 39.4296 6.76991 39.8997 7.3498 39.8997C7.9297 39.8997 8.3998 39.4296 8.3998 38.8497V36.7497C8.3998 36.1698 7.9297 35.6997 7.3498 35.6997Z" fill="#000D7F"/>
<path d="M13.6496 41.9998C13.0697 41.9998 12.5996 42.4699 12.5996 43.0498V45.1498C12.5996 45.7297 13.0697 46.1998 13.6496 46.1998C14.2295 46.1998 14.6996 45.7297 14.6996 45.1498V43.0498C14.6996 42.4699 14.2295 41.9998 13.6496 41.9998Z" fill="#000D7F"/>
<path d="M7.3498 41.9998C6.76991 41.9998 6.2998 42.4699 6.2998 43.0498V45.1498C6.2998 45.7297 6.76991 46.1998 7.3498 46.1998C7.9297 46.1998 8.3998 45.7297 8.3998 45.1498V43.0498C8.3998 42.4699 7.9297 41.9998 7.3498 41.9998Z" fill="#000D7F"/>
<path d="M13.6496 48.3003C13.0697 48.3003 12.5996 48.7704 12.5996 49.3503V51.4503C12.5996 52.0302 13.0697 52.5003 13.6496 52.5003C14.2295 52.5003 14.6996 52.0302 14.6996 51.4503V49.3503C14.6996 48.7704 14.2295 48.3003 13.6496 48.3003Z" fill="#000D7F"/>
<path d="M7.3498 48.3003C6.76991 48.3003 6.2998 48.7704 6.2998 49.3503V51.4503C6.2998 52.0302 6.76991 52.5003 7.3498 52.5003C7.9297 52.5003 8.3998 52.0302 8.3998 51.4503V49.3503C8.3998 48.7704 7.9297 48.3003 7.3498 48.3003Z" fill="#000D7F"/>
<path d="M55.6496 35.6997C55.0697 35.6997 54.5996 36.1698 54.5996 36.7497V38.8497C54.5996 39.4296 55.0697 39.8997 55.6496 39.8997C56.2295 39.8997 56.6996 39.4296 56.6996 38.8497V36.7497C56.6996 36.1698 56.2295 35.6997 55.6496 35.6997Z" fill="#000D7F"/>
<path d="M49.3498 35.6997C48.7699 35.6997 48.2998 36.1698 48.2998 36.7497V38.8497C48.2998 39.4296 48.7699 39.8997 49.3498 39.8997C49.9297 39.8997 50.3998 39.4296 50.3998 38.8497V36.7497C50.3998 36.1698 49.9297 35.6997 49.3498 35.6997Z" fill="#000D7F"/>
<path d="M55.6496 41.9998C55.0697 41.9998 54.5996 42.4699 54.5996 43.0498V45.1498C54.5996 45.7297 55.0697 46.1998 55.6496 46.1998C56.2295 46.1998 56.6996 45.7297 56.6996 45.1498V43.0498C56.6996 42.4699 56.2295 41.9998 55.6496 41.9998Z" fill="#000D7F"/>
<path d="M49.3498 41.9998C48.7699 41.9998 48.2998 42.4699 48.2998 43.0498V45.1498C48.2998 45.7297 48.7699 46.1998 49.3498 46.1998C49.9297 46.1998 50.3998 45.7297 50.3998 45.1498V43.0498C50.3998 42.4699 49.9297 41.9998 49.3498 41.9998Z" fill="#000D7F"/>
<path d="M55.6496 48.3003C55.0697 48.3003 54.5996 48.7704 54.5996 49.3503V51.4503C54.5996 52.0302 55.0697 52.5003 55.6496 52.5003C56.2295 52.5003 56.6996 52.0302 56.6996 51.4503V49.3503C56.6996 48.7704 56.2295 48.3003 55.6496 48.3003Z" fill="#000D7F"/>
<path d="M49.3498 48.3003C48.7699 48.3003 48.2998 48.7704 48.2998 49.3503V51.4503C48.2998 52.0302 48.7699 52.5003 49.3498 52.5003C49.9297 52.5003 50.3998 52.0302 50.3998 51.4503V49.3503C50.3998 48.7704 49.9297 48.3003 49.3498 48.3003Z" fill="#000D7F"/>
<path d="M34.6496 34.6501C34.0697 34.6501 33.5996 35.1202 33.5996 35.7001V37.8001C33.5996 38.38 34.0697 38.8501 34.6496 38.8501C35.2295 38.8501 35.6996 38.38 35.6996 37.8001V35.7001C35.6996 35.1202 35.2295 34.6501 34.6496 34.6501Z" fill="#000D7F"/>
</svg>
