<svg width="77" height="77" viewBox="0 0 77 77" fill="none" xmlns="http://www.w3.org/2000/svg">
<path d="M66.3337 20.2351C65.6756 20.235 65.0323 20.43 64.485 20.7956C63.9378 21.1611 63.5112 21.6807 63.2593 22.2887C63.0074 22.8966 62.9414 23.5656 63.0697 24.2111C63.198 24.8566 63.5149 25.4495 63.9802 25.9149C64.4455 26.3802 65.0383 26.6972 65.6838 26.8256C66.3292 26.954 66.9982 26.8882 67.6062 26.6364C68.2143 26.3846 68.7339 25.9581 69.0996 25.4109C69.4652 24.8638 69.6603 24.2204 69.6603 23.5624C69.6594 22.6803 69.3087 21.8346 68.685 21.2109C68.0614 20.5871 67.2158 20.2362 66.3337 20.2351ZM66.3337 25.0849C66.0325 25.085 65.7381 24.9958 65.4877 24.8286C65.2372 24.6614 65.0419 24.4236 64.9266 24.1454C64.8113 23.8672 64.7811 23.5611 64.8397 23.2657C64.8984 22.9703 65.0434 22.6989 65.2563 22.486C65.4692 22.273 65.7405 22.1279 66.0358 22.0691C66.3312 22.0103 66.6374 22.0404 66.9156 22.1556C67.1939 22.2709 67.4317 22.466 67.599 22.7164C67.7663 22.9668 67.8557 23.2612 67.8557 23.5624C67.8553 23.966 67.6949 24.353 67.4096 24.6384C67.1243 24.9239 66.7373 25.0845 66.3337 25.0851V25.0849Z" fill="#000D7F"/>
<path d="M27.6688 12.0858C28.4441 12.0861 29.202 11.8565 29.8468 11.426C30.4916 10.9956 30.9942 10.3835 31.2911 9.66738C31.588 8.95121 31.6659 8.16308 31.5148 7.40267C31.3638 6.64226 30.9906 5.94372 30.4425 5.3954C29.8945 4.84709 29.1961 4.47363 28.4357 4.32226C27.6754 4.17089 26.8872 4.24841 26.1709 4.54502C25.4546 4.84163 24.8424 5.344 24.4116 5.98859C23.9809 6.63318 23.751 7.39104 23.751 8.16631C23.7519 9.20525 24.1649 10.2014 24.8994 10.9362C25.6339 11.671 26.6299 12.0844 27.6688 12.0858ZM27.6688 6.05151C28.0871 6.05119 28.4962 6.17494 28.8442 6.40712C29.1922 6.63929 29.4635 6.96947 29.6238 7.35586C29.7841 7.74226 29.8262 8.16753 29.7448 8.57787C29.6634 8.98821 29.4621 9.36518 29.1664 9.66111C28.8707 9.95703 28.4939 10.1586 28.0836 10.2403C27.6734 10.3221 27.2481 10.2803 26.8615 10.1203C26.475 9.96026 26.1446 9.68921 25.9122 9.3414C25.6797 8.99358 25.5557 8.58464 25.5557 8.16631C25.5561 7.60584 25.7788 7.06841 26.1749 6.67195C26.5711 6.27548 27.1083 6.05235 27.6688 6.05151Z" fill="#000D7F"/>
<path d="M42.8161 34.8627C42.8158 34.0879 42.5857 33.3306 42.155 32.6865C41.7243 32.0425 41.1124 31.5406 40.3964 31.2443C39.6805 30.948 38.8928 30.8707 38.133 31.022C37.3731 31.1734 36.6751 31.5466 36.1274 32.0946C35.5796 32.6426 35.2067 33.3407 35.0556 34.1006C34.9046 34.8606 34.9823 35.6482 35.2789 36.364C35.5754 37.0798 36.0776 37.6916 36.7218 38.122C37.3661 38.5525 38.1235 38.7822 38.8983 38.7822C39.9372 38.7808 40.9332 38.3673 41.6677 37.6326C42.4021 36.8978 42.8152 35.9016 42.8161 34.8627ZM38.8983 36.9775C38.48 36.9778 38.0709 36.8541 37.7229 36.6219C37.3749 36.3897 37.1036 36.0595 36.9433 35.6732C36.783 35.2868 36.7409 34.8615 36.8223 34.4511C36.9037 34.0408 37.105 33.6638 37.4007 33.3679C37.6964 33.072 38.0732 32.8704 38.4835 32.7887C38.8937 32.7069 39.319 32.7487 39.7056 32.9087C40.0921 33.0687 40.4225 33.3398 40.6549 33.6876C40.8874 34.0354 41.0114 34.4444 41.0114 34.8627C41.011 35.4232 40.7883 35.9607 40.3921 36.3572C39.9958 36.7536 39.4585 36.9767 38.898 36.9775H38.8983Z" fill="#000D7F"/>
<path d="M13.0301 24.3299C13.8054 24.3303 14.5634 24.1007 15.2081 23.6702C15.8529 23.2397 16.3555 22.6277 16.6524 21.9115C16.9493 21.1954 17.0272 20.4072 16.8762 19.6468C16.7251 18.8864 16.3519 18.1879 15.8039 17.6395C15.2558 17.0912 14.5574 16.7178 13.797 16.5664C13.0367 16.415 12.2485 16.4926 11.5322 16.7892C10.816 17.0858 10.2037 17.5881 9.77297 18.2327C9.34222 18.8773 9.1123 19.6352 9.1123 20.4104C9.11326 21.4494 9.52628 22.4455 10.2608 23.1803C10.9952 23.9151 11.9912 24.3285 13.0301 24.3299ZM13.0301 18.2957C13.4485 18.2953 13.8575 18.4191 14.2055 18.6513C14.5535 18.8834 14.8248 19.2136 14.9851 19.6C15.1454 19.9864 15.1876 20.4117 15.1061 20.822C15.0247 21.2323 14.8234 21.6093 14.5278 21.9052C14.2321 22.2012 13.8552 22.4028 13.445 22.4845C13.0347 22.5662 12.6094 22.5244 12.2229 22.3644C11.8363 22.2044 11.506 21.9333 11.2735 21.5855C11.0411 21.2377 10.917 20.8288 10.917 20.4104C10.9174 19.85 11.1401 19.3126 11.5363 18.9161C11.9324 18.5196 12.4697 18.2965 13.0301 18.2957Z" fill="#000D7F"/>
<path d="M72.0252 23.3406C71.8316 20.3629 69.3987 18.0308 66.4866 18.0308C65.1408 18.0336 63.8435 18.5338 62.8441 19.4351C59.8871 16.5466 56.1955 14.0585 52.1089 12.209C47.4751 10.1118 42.6575 9.00329 38.1772 9.00329C36.9413 9.01454 35.7069 9.09115 34.4791 9.23278C34.5406 8.79285 34.5569 8.34778 34.5278 7.90453C34.2944 4.31531 31.3648 1.50391 27.8583 1.50391C24.3518 1.50391 21.4216 4.31531 21.1888 7.90303C21.1051 9.5451 21.6001 11.1645 22.5874 12.4793L22.7737 12.7285C21.1227 13.6627 19.5319 14.6996 18.0109 15.8331C17.3964 15.1774 16.6545 14.6543 15.8305 14.2957C15.0065 13.9372 14.118 13.7508 13.2194 13.7481C9.71275 13.7481 6.78269 16.5604 6.55004 20.1472C6.46649 21.7893 6.96142 23.4088 7.94867 24.7236L9.02442 26.1623C6.47529 31.0647 4.96297 37.0343 4.96297 42.2497C4.95367 46.6174 5.80593 50.9441 7.47094 54.982C9.13595 59.0199 11.581 62.6897 14.6662 65.7815C17.7513 68.8732 21.416 71.3261 25.4503 72.9997C29.4847 74.6733 33.8095 75.5347 38.1773 75.5347C42.545 75.5347 46.8698 74.6733 50.9042 72.9997C54.9385 71.3261 58.6032 68.8732 61.6883 65.7815C64.7735 62.6897 67.2186 59.0199 68.8836 54.982C70.5486 50.9441 71.4008 46.6174 71.3916 42.2497C71.3916 38.548 70.4488 32.9966 69.2174 29.3393L70.8652 27.136C71.6934 26.0504 72.105 24.7038 72.0252 23.3406ZM22.9895 8.02154C23.1399 5.70552 25.0025 3.30859 27.8583 3.30859C30.7141 3.30859 32.5762 5.70492 32.727 8.02394C32.794 9.23743 32.4239 10.4347 31.6838 11.3987L27.8583 16.5157L24.0393 11.4076C23.3047 10.4361 22.9333 9.23817 22.9895 8.02154ZM8.35127 20.2657C8.50166 17.9497 10.3641 15.5528 13.2199 15.5528C16.0756 15.5528 17.9379 17.9491 18.0886 20.2683C18.1557 21.4817 17.7856 22.6791 17.0453 23.6429L13.2194 28.76L9.40084 23.6518C8.66628 22.6803 8.29495 21.4824 8.35127 20.2657ZM10.2345 27.7808L12.4975 30.8072C12.5816 30.9196 12.6906 31.0108 12.8161 31.0737C12.9415 31.1365 13.0799 31.1693 13.2202 31.1693C13.3606 31.1693 13.4989 31.1365 13.6244 31.0737C13.7499 31.0108 13.8589 30.9196 13.9429 30.8072L18.4902 24.7242C19.2954 23.6748 19.7788 22.4143 19.8817 21.0955C19.9845 19.7768 19.7024 18.4565 19.0696 17.2949C20.5981 16.1549 22.2001 15.1169 23.8653 14.1879L27.1358 18.5624C27.2198 18.6748 27.3289 18.766 27.4544 18.8289C27.5798 18.8917 27.7182 18.9245 27.8585 18.9245C27.9988 18.9245 28.1372 18.8917 28.2627 18.8289C28.3881 18.766 28.4972 18.6748 28.5812 18.5624L33.1287 12.4796C33.4465 12.056 33.7168 11.5989 33.9347 11.1163C34.3096 11.0683 34.6842 11.0235 35.0536 10.986L38.8434 16.4536C39.2825 17.0843 39.5088 17.8386 39.4894 18.6068C39.47 19.375 39.206 20.117 38.7357 20.7247L37.6653 22.1148C37.4041 22.4527 37.0594 22.7166 36.665 22.8805C36.2707 23.0445 35.8405 23.1027 35.4168 23.0496L34.2025 22.8944C33.3469 22.7846 32.4779 22.9288 31.7036 23.309C30.9292 23.6891 30.2837 24.2886 29.8474 25.0327C29.6015 25.4518 29.238 25.7895 28.802 26.0039C28.3659 26.2182 27.8765 26.2997 27.3945 26.2384L24.5909 25.8819C23.7524 25.7729 22.9 25.8998 22.1296 26.2483C21.3592 26.5969 20.7012 27.1534 20.2296 27.8552C19.7882 28.5072 19.5467 29.2738 19.5346 30.061C19.5224 30.8483 19.7402 31.6219 20.1613 32.2872L22.0134 35.2146C22.3547 35.7509 22.826 36.1922 23.3836 36.4977C23.9411 36.8031 24.5668 36.9626 25.2025 36.9615C25.8184 36.962 26.4248 36.8098 26.9675 36.5186L28.8745 35.4959C29.8087 34.995 31.3258 34.99 32.4193 35.4406C32.5237 36.7921 33.008 38.0865 33.8163 39.1747L38.3647 45.2595C38.4487 45.3718 38.5578 45.4631 38.6833 45.5259C38.8087 45.5888 38.9471 45.6215 39.0874 45.6215C39.2277 45.6215 39.3661 45.5888 39.4916 45.5259C39.617 45.4631 39.7261 45.3718 39.8101 45.2595L42.117 42.1737L42.4102 42.5756C42.5345 42.7488 42.6675 42.9194 42.8061 43.0824L45.1221 45.8102C45.2253 45.9318 45.3027 46.073 45.3497 46.2254C45.3967 46.3778 45.4123 46.5381 45.3955 46.6967C45.3787 46.8553 45.3299 47.0088 45.252 47.148C45.1741 47.2872 45.0688 47.409 44.9424 47.5063L41.4327 50.2051C40.4986 50.9205 39.8115 51.9099 39.4672 53.035L38.2973 56.8326C38.2054 57.1322 38.0549 57.4104 37.8546 57.6513L36.7163 59.0217C35.8683 60.0405 35.3434 61.289 35.2085 62.6076C35.1755 62.9283 35.0568 63.2341 34.8649 63.4931C34.673 63.7521 34.4149 63.9546 34.1177 64.0795C33.9931 64.1316 33.8584 64.1549 33.7235 64.1476C33.5886 64.1402 33.4572 64.1025 33.339 64.0371C33.2208 63.9717 33.119 63.8805 33.0411 63.7701C32.9632 63.6598 32.9113 63.5333 32.8893 63.4L31.817 56.9604C31.6831 56.1602 31.3565 55.4045 30.8653 54.7587L26.937 49.6032C26.584 49.1408 26.323 48.6149 26.1682 48.0542L24.8717 43.3727C24.6425 42.5524 24.205 41.8054 23.6018 41.2042C22.9986 40.6029 22.2501 40.168 21.4291 39.9415L21.1473 39.8646C20.5769 39.7084 20.0536 39.4149 19.6229 39.0097L17.2048 36.7307C16.8196 36.3679 16.4891 35.9511 16.2238 35.4934C15.661 34.5232 14.8094 33.7529 13.7877 33.2902C12.766 32.8275 11.6253 32.6954 10.5249 32.9124C10.4896 32.9193 10.4548 32.9283 10.4206 32.9395L7.9977 33.7277C8.56297 31.6821 9.31159 29.6918 10.2345 27.7808ZM34.2191 34.718C34.3694 32.402 36.2319 30.005 39.0877 30.005C41.9434 30.005 43.8057 32.4014 43.9564 34.7205C44.0235 35.934 43.6534 37.1313 42.9131 38.0951L39.0877 43.2122L35.2686 38.104C34.5341 37.1326 34.1627 35.9346 34.2191 34.718ZM69.5869 42.2497C69.5869 59.5867 55.4965 73.6914 38.1772 73.6914C20.8579 73.6914 6.76765 59.5867 6.76765 42.2497C6.78238 40.0772 7.02473 37.9122 7.49073 35.7903L10.9246 34.6733C11.6496 34.5411 12.3978 34.6359 13.0669 34.9448C13.736 35.2536 14.2935 35.7615 14.6632 36.399C15.0161 37.0077 15.4555 37.5619 15.9677 38.0443L18.3859 40.3226C19.0322 40.9302 19.8173 41.3705 20.6728 41.605L20.9546 41.6817C21.4741 41.8252 21.9477 42.1007 22.3292 42.4813C22.7108 42.8619 22.9875 43.3348 23.1324 43.8539L24.4289 48.5362C24.6449 49.3187 25.009 50.0525 25.5015 50.6977L29.4299 55.8534C29.7432 56.2653 29.9515 56.7473 30.0368 57.2578L31.1091 63.6973C31.1752 64.0995 31.3316 64.4815 31.5666 64.8145C31.8016 65.1474 32.109 65.4228 32.4658 65.6198C32.8226 65.8168 33.2194 65.9303 33.6264 65.9518C34.0334 65.9733 34.44 65.9022 34.8155 65.7439C35.4114 65.4938 35.929 65.0879 36.3139 64.5687C36.6988 64.0496 36.9368 63.4364 37.0029 62.7935C37.1015 61.8305 37.4848 60.9188 38.1039 60.1747L39.2423 58.8044C39.595 58.3805 39.8599 57.8908 40.0216 57.3636L41.191 53.566C41.4258 52.7987 41.8943 52.124 42.5313 51.636L46.0425 48.9371C46.3626 48.6909 46.6295 48.3823 46.8268 48.0299C47.0242 47.6775 47.1479 47.2887 47.1905 46.8871C47.2331 46.4855 47.1936 46.0794 47.0746 45.6935C46.9556 45.3075 46.7594 44.9498 46.498 44.642L44.182 41.9142C44.0755 41.7887 43.9731 41.6576 43.8734 41.5185L43.2482 40.6613L44.3582 39.1766C45.3567 37.8677 45.8529 36.2444 45.7569 34.601C45.5236 31.0118 42.594 28.2003 39.0874 28.2003C35.9186 28.2003 33.2221 30.4964 32.559 33.586C31.0601 33.1441 29.2655 33.2401 28.0218 33.9066L26.1148 34.9293C25.6788 35.161 25.1714 35.2199 24.6939 35.0941C24.2164 34.9683 23.8039 34.6672 23.5386 34.2507L21.6864 31.3232C21.4531 30.9546 21.3324 30.5259 21.3391 30.0897C21.3458 29.6535 21.4796 29.2288 21.7242 28.8675C22.0095 28.4427 22.4077 28.106 22.8739 27.895C23.3401 27.6841 23.8559 27.6073 24.3634 27.6732L27.1669 28.0295C27.9994 28.1359 28.8447 27.9954 29.5979 27.6253C30.3511 27.2552 30.9789 26.6719 31.4033 25.9479C31.6606 25.5084 32.0414 25.1543 32.4985 24.9297C32.9556 24.705 33.4686 24.6198 33.9738 24.6847L35.1879 24.8399C35.9242 24.9322 36.6718 24.831 37.357 24.5462C38.0422 24.2613 38.6413 23.8027 39.0952 23.2157L40.1657 21.8256C40.8705 20.9149 41.2662 19.803 41.2952 18.6518C41.3241 17.5006 40.9849 16.3702 40.3267 15.4253L37.142 10.832C37.507 10.817 37.8544 10.808 38.1772 10.808C42.4032 10.808 46.963 11.8607 51.3648 13.8532C52.7439 14.479 54.0841 15.1872 55.3783 15.9737L52.9543 20.1286C52.6068 20.7383 52.4578 21.4411 52.5278 22.1394C52.5979 22.8377 52.8836 23.4968 53.3453 24.0254C54.0418 24.8232 55.0083 25.3358 56.0595 25.4649L56.4991 25.519C56.9246 25.5718 57.3256 25.7469 57.6535 26.0231C57.9814 26.2993 58.222 26.6648 58.3462 27.0751C58.4637 27.465 58.4672 27.8803 58.3562 28.272C58.2452 28.6638 58.0244 29.0156 57.7198 29.2859L53.3669 33.1347C52.9257 33.5251 52.5724 34.0047 52.3304 34.5419C52.0885 35.079 51.9633 35.6615 51.9632 36.2506V37.2719C51.9618 37.8771 52.1128 38.473 52.4022 39.0045C52.6916 39.5361 53.1101 39.9862 53.6191 40.3136C53.8722 40.4762 54.0852 40.6942 54.242 40.9509C54.3988 41.2077 54.4954 41.4967 54.5245 41.7961L54.6263 42.8158C54.7061 43.6413 55.0909 44.4073 55.7056 44.9641C56.3203 45.5208 57.1206 45.8282 57.9499 45.8261H60.4977C61.5532 45.8258 62.5857 45.5181 63.4692 44.9406C64.3526 44.3631 65.0488 43.5409 65.4726 42.5742L65.6257 42.2252C65.7757 41.8791 66.0202 41.5823 66.331 41.3688C66.6419 41.1552 67.0067 41.0335 67.3835 41.0177L67.9813 40.9906C68.0786 40.9863 68.1756 40.9792 68.2725 40.9694L69.5434 40.8414C69.5717 41.3358 69.5869 41.8086 69.5869 42.2497ZM69.3936 39.0414L68.0917 39.1724C68.0282 39.1789 67.9645 39.1834 67.9001 39.1864L67.3014 39.2136C66.5879 39.2435 65.8972 39.4739 65.3086 39.8781C64.7199 40.2824 64.257 40.8444 63.9729 41.4995L63.8198 41.8486C63.5369 42.4942 63.072 43.0434 62.4821 43.4291C61.8921 43.8148 61.2026 44.0204 60.4977 44.0207H57.9496C57.5682 44.0215 57.2003 43.88 56.9177 43.6239C56.6351 43.3677 56.4582 43.0154 56.4217 42.6357L56.3197 41.6159C56.2643 41.0465 56.0806 40.497 55.7824 40.0087C55.4841 39.5204 55.0791 39.1061 54.5977 38.7969C54.3424 38.6326 54.1326 38.4068 53.9875 38.1402C53.8424 37.8736 53.7667 37.5747 53.7674 37.2712V36.2499C53.7674 35.9163 53.8383 35.5866 53.9752 35.2826C54.1122 34.9785 54.3122 34.7069 54.5619 34.4859L58.9148 30.6371C59.4775 30.1377 59.8855 29.4876 60.0907 28.7638C60.2959 28.04 60.2897 27.2725 60.0729 26.5521C59.8472 25.8072 59.4102 25.1438 58.8149 24.6424C58.2196 24.1411 57.4916 23.8233 56.7191 23.7276L56.2796 23.6734C55.669 23.5985 55.1077 23.3008 54.7032 22.8374C54.4888 22.5925 54.3558 22.2871 54.3225 21.9633C54.2892 21.6396 54.3572 21.3135 54.5171 21.03L56.8992 16.9471C58.6159 18.0963 60.2234 19.4009 61.7016 20.8441C61.2623 21.6075 61.0045 22.4617 60.9481 23.3406C60.8784 24.7026 61.2886 26.046 62.1073 27.1366L65.7639 32.0261C65.848 32.1385 65.957 32.2297 66.0825 32.2925C66.2079 32.3554 66.3463 32.3881 66.4866 32.3881C66.6269 32.3881 66.7652 32.3554 66.8907 32.2925C67.0161 32.2297 67.1252 32.1385 67.2092 32.0261L67.8816 31.1269C68.5998 33.7196 69.1055 36.3666 69.3936 39.0414ZM69.4205 26.0541L66.4866 29.9774L63.5592 26.0627C62.9931 25.3155 62.7064 24.3938 62.7489 23.4573C62.8647 21.6767 64.2945 19.835 66.4866 19.835C68.6787 19.835 70.1086 21.6767 70.2244 23.4594C70.2756 24.3927 69.9903 25.3134 69.4204 26.0543L69.4205 26.0541Z" fill="#000D7F"/>
</svg>
