<svg width="100" height="99" viewBox="0 0 100 99" fill="none" xmlns="http://www.w3.org/2000/svg">
<g clip-path="url(#clip0_101_1998)">
<path d="M72.7084 99.0002C57.9134 99.0002 45.876 86.9717 45.876 72.1877C45.876 57.4037 57.9134 45.3752 72.7084 45.3752C87.5033 45.3752 99.5407 57.4037 99.5407 72.1877C99.5407 86.9717 87.5033 99.0002 72.7084 99.0002ZM72.7084 49.5002C60.188 49.5002 50.004 59.6807 50.004 72.1877C50.004 84.6947 60.188 94.8752 72.7084 94.8752C85.2288 94.8752 95.4127 84.6947 95.4127 72.1877C95.4127 59.6807 85.2288 49.5002 72.7084 49.5002Z" fill="#000D7F"/>
<path d="M68.5809 82.5002C68.036 82.5002 67.5076 82.2815 67.1196 81.8979L58.8635 73.6479C58.0585 72.8435 58.0585 71.5359 58.8635 70.7315C59.6685 69.9272 60.9771 69.9272 61.782 70.7315L68.4777 77.4223L81.4729 62.5805C82.2242 61.7184 83.5286 61.6359 84.3873 62.3867C85.2459 63.1374 85.3326 64.4368 84.5813 65.2948L70.1331 81.7948C69.7574 82.2238 69.2167 82.4795 68.647 82.5002C68.6263 82.5002 68.6016 82.5002 68.5809 82.5002Z" fill="#000D7F"/>
<path d="M39.6843 86.6251H10.7879C5.09945 86.6251 0.467773 82.0009 0.467773 76.3126V22.6876C0.467773 16.9992 5.09945 12.3751 10.7879 12.3751H19.044C20.1834 12.3751 21.1081 13.2991 21.1081 14.4376C21.1081 15.5761 20.1834 16.5001 19.044 16.5001H10.7879C7.37402 16.5001 4.59583 19.2762 4.59583 22.6876V76.3126C4.59583 79.7239 7.37402 82.5001 10.7879 82.5001H39.6843C40.8237 82.5001 41.7484 83.4241 41.7484 84.5626C41.7484 85.7011 40.8237 86.6251 39.6843 86.6251Z" fill="#000D7F"/>
<path d="M68.5811 37.1251C67.4418 37.1251 66.5171 36.2011 66.5171 35.0626V22.6876C66.5171 19.2762 63.7389 16.5001 60.325 16.5001H52.0689C50.9296 16.5001 50.0049 15.5761 50.0049 14.4376C50.0049 13.2991 50.9296 12.3751 52.0689 12.3751H60.325C66.0135 12.3751 70.6452 16.9992 70.6452 22.6876V35.0626C70.6452 36.2011 69.7205 37.1251 68.5811 37.1251Z" fill="#000D7F"/>
<path d="M47.9409 24.7501H23.1726C19.7587 24.7501 16.9805 21.9739 16.9805 18.5626V10.3126C16.9805 9.17406 17.9052 8.25006 19.0445 8.25006H25.443C26.4048 3.54756 30.57 6.10352e-05 35.5567 6.10352e-05C40.5434 6.10352e-05 44.7086 3.54756 45.6705 8.25006H52.069C53.2083 8.25006 54.133 9.17406 54.133 10.3126V18.5626C54.133 21.9739 51.3548 24.7501 47.9409 24.7501ZM21.1085 12.3751V18.5626C21.1085 19.6969 22.0332 20.6251 23.1726 20.6251H47.9409C49.0802 20.6251 50.0049 19.6969 50.0049 18.5626V12.3751H43.8128C42.6735 12.3751 41.7488 11.4511 41.7488 10.3126C41.7488 6.90119 38.9706 4.12506 35.5567 4.12506C32.1428 4.12506 29.3646 6.90119 29.3646 10.3126C29.3646 11.4511 28.44 12.3751 27.3006 12.3751H21.1085Z" fill="#000D7F"/>
<path d="M56.1962 37.1252H14.9156C13.7762 37.1252 12.8516 36.2012 12.8516 35.0627C12.8516 33.9242 13.7762 33.0002 14.9156 33.0002H56.1962C57.3355 33.0002 58.2602 33.9242 58.2602 35.0627C58.2602 36.2012 57.3355 37.1252 56.1962 37.1252Z" fill="#000D7F"/>
<path d="M43.812 49.5002H14.9156C13.7762 49.5002 12.8516 48.5762 12.8516 47.4377C12.8516 46.2992 13.7762 45.3752 14.9156 45.3752H43.812C44.9513 45.3752 45.876 46.2992 45.876 47.4377C45.876 48.5762 44.9513 49.5002 43.812 49.5002Z" fill="#000D7F"/>
<path d="M35.5559 61.8752H14.9156C13.7762 61.8752 12.8516 60.9512 12.8516 59.8127C12.8516 58.6742 13.7762 57.7502 14.9156 57.7502H35.5559C36.6952 57.7502 37.6199 58.6742 37.6199 59.8127C37.6199 60.9512 36.6952 61.8752 35.5559 61.8752Z" fill="#000D7F"/>
</g>
<defs>
<clipPath id="clip0_101_1998">
<rect width="99.0734" height="99" fill="white" transform="translate(0.467773 6.10352e-05)"/>
</clipPath>
</defs>
</svg>
