<svg width="34" height="34" viewBox="0 0 34 34" fill="none" xmlns="http://www.w3.org/2000/svg">
<g clip-path="url(#clip0_101_2153)">
<path d="M29.7503 14.1665C25.1454 14.4336 20.7167 16.0299 17.0003 18.7622C13.284 16.0299 8.85524 14.4336 4.25033 14.1665V18.3598C3.49762 18.3613 2.77632 18.6617 2.24501 19.1949C1.7137 19.728 1.41587 20.4504 1.417 21.2031V22.6254C1.417 24.1965 4.25033 25.7534 4.25033 25.7534V28.5967C8.013 28.8387 11.6417 30.0863 14.7577 32.2092C15.5445 32.7552 16.2938 33.3534 17.0003 33.9998C17.7069 33.3534 18.4561 32.7552 19.2429 32.2092C22.3589 30.0863 25.9877 28.8387 29.7503 28.5967V25.4687C30.503 25.4672 31.2243 25.1668 31.7556 24.6336C32.287 24.1005 32.5848 23.3781 32.5837 22.6254V21.2031C32.5848 20.4504 32.287 19.728 31.7556 19.1949C31.2243 18.6617 30.503 18.3613 29.7503 18.3598V14.1665ZM17.0003 30.3477C14.0621 28.1944 10.6699 26.7425 7.08366 26.1033V17.3908C9.83211 17.9445 12.4416 19.0438 14.7577 20.6237C15.5445 21.1697 16.2938 21.7679 17.0003 22.4143C17.7069 21.7679 18.4561 21.1697 19.2429 20.6237C21.559 19.0433 24.1684 17.9435 26.917 17.3894V26.1033C23.3308 26.7425 19.9385 28.1944 17.0003 30.3477ZM15.5837 11.3332H18.417V12.7498H15.5837V11.3332ZM15.5837 5.6665H18.417V7.08317H15.5837V5.6665Z" fill="white"/>
<path d="M15.5835 14.1662H18.4168V15.5829H15.5835V14.1662ZM12.7502 7.08287C13.1259 7.08287 13.4862 6.93362 13.7519 6.66794C14.0176 6.40227 14.1668 6.04193 14.1668 5.66621C14.1682 5.48166 14.1328 5.29869 14.0628 5.12794C13.9928 4.95718 13.8895 4.80205 13.759 4.67155C13.6285 4.54105 13.4734 4.4378 13.3026 4.36778C13.1319 4.29776 12.9489 4.26239 12.7643 4.26371C12.5792 4.26278 12.3958 4.29832 12.2244 4.3683C12.053 4.43827 11.8971 4.54132 11.7655 4.67156C11.4999 4.93458 11.3496 5.29236 11.3477 5.66621C11.3458 6.04005 11.4925 6.39933 11.7555 6.66501C12.0185 6.93068 12.3763 7.081 12.7502 7.08287Z" fill="white"/>
<path d="M21.2497 7.08333C22.0321 7.08333 22.6663 6.44907 22.6663 5.66667C22.6663 4.88426 22.0321 4.25 21.2497 4.25C20.4673 4.25 19.833 4.88426 19.833 5.66667C19.833 6.44907 20.4673 7.08333 21.2497 7.08333Z" fill="white"/>
<path d="M22.6663 11.3333H11.333C10.2062 11.3322 9.12583 10.8841 8.32905 10.0873C7.53226 9.29051 7.08413 8.21016 7.08301 7.08333V4.25C7.08413 3.12318 7.53226 2.04282 8.32905 1.24604C9.12583 0.449253 10.2062 0.00112514 11.333 0L22.6663 0C23.7932 0.00112514 24.8735 0.449253 25.6703 1.24604C26.4671 2.04282 26.9152 3.12318 26.9163 4.25V7.08333C26.9152 8.21016 26.4671 9.29051 25.6703 10.0873C24.8735 10.8841 23.7932 11.3322 22.6663 11.3333ZM11.333 2.83333C10.9574 2.83371 10.5973 2.98308 10.3317 3.24868C10.0661 3.51427 9.91672 3.87439 9.91634 4.25V7.08333C9.91672 7.45894 10.0661 7.81906 10.3317 8.08465C10.5973 8.35025 10.9574 8.49962 11.333 8.5H22.6663C23.042 8.49962 23.4021 8.35025 23.6677 8.08465C23.9333 7.81906 24.0826 7.45894 24.083 7.08333V4.25C24.0826 3.87439 23.9333 3.51427 23.6677 3.24868C23.4021 2.98308 23.042 2.83371 22.6663 2.83333H11.333Z" fill="white"/>
</g>
<defs>
<clipPath id="clip0_101_2153">
<rect width="34" height="34" fill="white"/>
</clipPath>
</defs>
</svg>
