<svg width="82" height="74" viewBox="0 0 82 74" fill="none" xmlns="http://www.w3.org/2000/svg">
<path d="M69.3011 5.37126H51.9186C49.9489 2.3677 45.5296 0.429199 40.6506 0.429199C35.7707 0.429199 31.3513 2.3677 29.3816 5.37126H11.9983C5.44108 5.37638 0.127722 8.95256 0.120117 13.3652V65.2213C0.127722 69.634 5.44108 73.2102 11.9983 73.2153H69.3011C75.8583 73.2102 81.1726 69.634 81.1802 65.2213V13.3652C81.1726 8.95256 75.8583 5.37638 69.3011 5.37126ZM31.3378 9.01057C32.607 9.01057 33.7055 8.41634 33.9784 7.581C34.6426 5.5464 37.4489 4.0685 40.6506 4.0685C43.8523 4.0685 46.6577 5.5464 47.3218 7.581C47.5939 8.41634 48.6924 9.01057 49.9633 9.01057H55.3248V10.6073C55.3206 13.011 52.4265 14.9586 48.8547 14.9614H32.4456C28.8729 14.9586 25.9788 13.011 25.9746 10.6073V9.01057H31.3378ZM75.7722 65.2213C75.7688 67.6255 72.8738 69.5737 69.3011 69.576H11.9983C8.42647 69.5737 5.53234 67.6255 5.52812 65.2213V13.3652C5.53234 10.961 8.42647 9.01341 11.9983 9.01057H20.5666V10.6073C20.5742 15.02 25.8884 18.5956 32.4456 18.6007H48.8547C55.4119 18.5956 60.7252 15.02 60.7328 10.6073V9.01057H69.3011C72.8738 9.01341 75.7679 10.961 75.7722 13.3652V65.2213Z" fill="#000D7F"/>
<path d="M52.0682 33.0282L36.8241 44.6687L29.083 38.7594C28.1723 38.0625 26.7138 38.071 25.8147 38.7769C24.9164 39.4835 24.9127 40.6241 25.8074 41.3335L25.8386 41.3573L35.2008 48.5066C36.1035 49.1955 37.5439 49.1955 38.4459 48.5066L55.3118 35.6279C56.2239 34.9265 56.2385 33.7807 55.3459 33.0651C54.4519 32.3495 52.9876 32.3336 52.0682 33.0294V33.0282Z" fill="#000D7F"/>
</svg>
