<svg width="100" height="99" viewBox="0 0 100 99" fill="none" xmlns="http://www.w3.org/2000/svg">
<g clip-path="url(#clip0_101_2007)">
<path d="M49.9099 99C49.3691 99 48.8407 98.7855 48.4486 98.3977C47.9615 97.911 47.7468 97.2097 47.883 96.5374L50.8016 81.9555C50.8841 81.5512 51.074 81.1841 51.3671 80.8995L83.4752 48.8152C85.8859 46.4062 89.82 46.4062 92.2308 48.8152L98.0678 54.648C100.483 57.0611 100.483 60.984 98.0678 63.3971L65.9598 95.4814C65.675 95.7701 65.3076 95.964 64.903 96.0465L50.3103 98.9629C50.1782 98.9876 50.042 99 49.9099 99ZM54.7315 83.3704L52.5436 94.3057L63.4871 92.1195L95.1534 60.4766C95.9584 59.6722 95.9584 58.3646 95.1534 57.5602L89.3164 51.7275C88.5114 50.9231 87.2028 50.9231 86.3978 51.7275L54.7315 83.3704ZM64.5026 94.0211H64.5439H64.5026Z" fill="#000D7F"/>
<path d="M40.0271 86.6251H11.1307C5.4381 86.6251 0.810547 82.0009 0.810547 76.3126V22.6876C0.810547 16.9992 5.4381 12.3751 11.1307 12.3751H19.3868C20.5262 12.3751 21.4508 13.2991 21.4508 14.4376C21.4508 15.5761 20.5262 16.5001 19.3868 16.5001H11.1307C7.71679 16.5001 4.93861 19.2762 4.93861 22.6876V76.3126C4.93861 79.7239 7.71679 82.5001 11.1307 82.5001H40.0271C41.1664 82.5001 42.0911 83.4241 42.0911 84.5626C42.0911 85.7011 41.1664 86.6251 40.0271 86.6251Z" fill="#000D7F"/>
<path d="M68.9239 49.5001C67.7846 49.5001 66.8599 48.5761 66.8599 47.4376V22.6876C66.8599 19.2762 64.0817 16.5001 60.6678 16.5001H52.4117C51.2723 16.5001 50.3477 15.5761 50.3477 14.4376C50.3477 13.2991 51.2723 12.3751 52.4117 12.3751H60.6678C66.3604 12.3751 70.9879 16.9992 70.9879 22.6876V47.4376C70.9879 48.5761 70.0633 49.5001 68.9239 49.5001Z" fill="#000D7F"/>
<path d="M48.2837 24.7501H23.5153C20.1014 24.7501 17.3232 21.9739 17.3232 18.5626V10.3126C17.3232 9.17406 18.2479 8.25006 19.3873 8.25006H25.7858C26.7435 3.54756 30.9169 6.10352e-05 35.8995 6.10352e-05C40.8821 6.10352e-05 45.0555 3.54756 46.0133 8.25006H52.4117C53.5511 8.25006 54.4758 9.17406 54.4758 10.3126V18.5626C54.4758 21.9739 51.6976 24.7501 48.2837 24.7501ZM21.4513 12.3751V18.5626C21.4513 19.6969 22.3801 20.6251 23.5153 20.6251H48.2837C49.4189 20.6251 50.3477 19.6969 50.3477 18.5626V12.3751H44.1556C43.0163 12.3751 42.0916 11.4511 42.0916 10.3126C42.0916 6.90119 39.3134 4.12506 35.8995 4.12506C32.4856 4.12506 29.7074 6.90119 29.7074 10.3126C29.7074 11.4511 28.7827 12.3751 27.6434 12.3751H21.4513Z" fill="#000D7F"/>
<path d="M56.5389 37.1252H15.2584C14.119 37.1252 13.1943 36.2012 13.1943 35.0627C13.1943 33.9242 14.119 33.0002 15.2584 33.0002H56.5389C57.6783 33.0002 58.603 33.9242 58.603 35.0627C58.603 36.2012 57.6783 37.1252 56.5389 37.1252Z" fill="#000D7F"/>
<path d="M56.5389 49.5002H15.2584C14.119 49.5002 13.1943 48.5762 13.1943 47.4377C13.1943 46.2992 14.119 45.3752 15.2584 45.3752H56.5389C57.6783 45.3752 58.603 46.2992 58.603 47.4377C58.603 48.5762 57.6783 49.5002 56.5389 49.5002Z" fill="#000D7F"/>
<path d="M56.5389 61.8752H15.2584C14.119 61.8752 13.1943 60.9512 13.1943 59.8127C13.1943 58.6742 14.119 57.7502 15.2584 57.7502H56.5389C57.6783 57.7502 58.603 58.6742 58.603 59.8127C58.603 60.9512 57.6783 61.8752 56.5389 61.8752Z" fill="#000D7F"/>
</g>
<defs>
<clipPath id="clip0_101_2007">
<rect width="99.0734" height="99" fill="white" transform="translate(0.810547 6.10352e-05)"/>
</clipPath>
</defs>
</svg>
