<svg width="22" height="22" viewBox="0 0 22 22" fill="none" xmlns="http://www.w3.org/2000/svg">
<g clip-path="url(#clip0_1_5855)">
<path d="M11 0C4.92525 0 0 4.92525 0 11C0 17.0748 4.92525 22 11 22C17.0748 22 22 17.0748 22 11C22 4.92525 17.0748 0 11 0ZM11 18.0217C10.1402 18.0217 9.55167 17.3589 9.55167 16.5C9.55167 15.6163 10.1649 14.9783 11 14.9783C11.8828 14.9783 12.4483 15.6163 12.4483 16.5C12.4483 17.3598 11.8828 18.0217 11 18.0217ZM11.5702 12.2109C11.3511 12.958 10.6608 12.9708 10.4307 12.2109C10.1658 11.3346 9.22442 8.008 9.22442 5.84742C9.22442 2.99658 12.7912 2.98283 12.7912 5.84742C12.7903 8.02083 11.7984 11.4336 11.5702 12.2109Z" fill="#E96464"/>
</g>
<defs>
<clipPath id="clip0_1_5855">
<rect width="22" height="22" fill="white"/>
</clipPath>
</defs>
</svg>
