<svg width="100" height="99" viewBox="0 0 100 99" fill="none" xmlns="http://www.w3.org/2000/svg">
<g clip-path="url(#clip0_101_1990)">
<path d="M66.1628 41.2501C54.7817 41.2501 45.5225 31.9977 45.5225 20.6251C45.5225 9.25244 54.7817 6.10352e-05 66.1628 6.10352e-05C77.5438 6.10352e-05 86.803 9.25244 86.803 20.6251C86.803 31.9977 77.5438 41.2501 66.1628 41.2501ZM66.1628 4.12506C57.0563 4.12506 49.6505 11.5253 49.6505 20.6251C49.6505 29.7248 57.0563 37.1251 66.1628 37.1251C75.2693 37.1251 82.675 29.7248 82.675 20.6251C82.675 11.5253 75.2693 4.12506 66.1628 4.12506Z" fill="#000D7F"/>
<path d="M92.9956 49.5001C92.4672 49.5001 91.9388 49.2979 91.5342 48.8978L78.8694 36.2423C78.0644 35.4379 78.0644 34.1303 78.8694 33.3259C79.6743 32.5216 80.9829 32.5216 81.7879 33.3259L94.4528 45.9814C95.2577 46.7858 95.2577 48.0934 94.4528 48.8978C94.0524 49.2979 93.524 49.5001 92.9956 49.5001Z" fill="#000D7F"/>
<path d="M6.30622 74.2501C5.16687 74.2501 4.24219 73.3261 4.24219 72.1876V10.3126C4.24219 4.62831 8.87387 6.10352e-05 14.5623 6.10352e-05H43.4587C44.5981 6.10352e-05 45.5228 0.924061 45.5228 2.06256C45.5228 3.20106 44.5981 4.12506 43.4587 4.12506H14.5623C11.1484 4.12506 8.37025 6.90119 8.37025 10.3126V72.1876C8.37025 73.3261 7.44556 74.2501 6.30622 74.2501Z" fill="#000D7F"/>
<path d="M31.0746 82.5001H14.5623C8.87387 82.5001 4.24219 77.8718 4.24219 72.1876C4.24219 66.5033 8.87387 61.8751 14.5623 61.8751H74.4192V51.5626C74.4192 50.4241 75.3438 49.5001 76.4832 49.5001C77.6225 49.5001 78.5472 50.4241 78.5472 51.5626V63.9376C78.5472 65.0761 77.6225 66.0001 76.4832 66.0001H14.5623C11.1484 66.0001 8.37024 68.7762 8.37024 72.1876C8.37024 75.5989 11.1484 78.3751 14.5623 78.3751H31.0746C32.2139 78.3751 33.1386 79.2991 33.1386 80.4376C33.1386 81.5761 32.2139 82.5001 31.0746 82.5001Z" fill="#000D7F"/>
<path d="M76.4837 82.5001H51.7154C50.5761 82.5001 49.6514 81.5761 49.6514 80.4376C49.6514 79.2991 50.5761 78.3751 51.7154 78.3751H74.4197V63.9376C74.4197 62.7991 75.3444 61.8751 76.4837 61.8751C77.6231 61.8751 78.5478 62.7991 78.5478 63.9376V80.4376C78.5478 81.5761 77.6231 82.5001 76.4837 82.5001Z" fill="#000D7F"/>
<path d="M51.7151 99C51.2568 99 50.7986 98.8474 50.423 98.5504L41.3949 91.3275L32.3627 98.5463C31.7435 99.0413 30.8973 99.1361 30.179 98.7938C29.4648 98.4514 29.0107 97.7295 29.0107 96.9375V72.1875C29.0107 71.049 29.9354 70.125 31.0748 70.125C32.2141 70.125 33.1388 71.049 33.1388 72.1875V92.6434L40.107 87.0746C40.8624 86.4724 41.9316 86.4724 42.687 87.0746L49.651 92.6434V72.1875C49.651 71.049 50.5757 70.125 51.7151 70.125C52.8544 70.125 53.7791 71.049 53.7791 72.1875V96.9375C53.7791 97.7295 53.325 98.4514 52.6108 98.7979C52.326 98.934 52.0205 99 51.7151 99Z" fill="#000D7F"/>
<path d="M59.9714 74.25H22.8189C21.6796 74.25 20.7549 73.326 20.7549 72.1875C20.7549 71.049 21.6796 70.125 22.8189 70.125H59.9714C61.1108 70.125 62.0355 71.049 62.0355 72.1875C62.0355 73.326 61.1108 74.25 59.9714 74.25Z" fill="#000D7F"/>
</g>
<defs>
<clipPath id="clip0_101_1990">
<rect width="99.0734" height="99" fill="white" transform="translate(0.114258 6.10352e-05)"/>
</clipPath>
</defs>
</svg>
