<svg width="100" height="99" viewBox="0 0 100 99" fill="none" xmlns="http://www.w3.org/2000/svg">
<g clip-path="url(#clip0_101_2015)">
<path d="M56.9494 6.10352e-05H23.9251C19.3726 6.10352e-05 15.6689 3.70096 15.6689 8.25013V67.6501C15.6689 72.1991 19.3726 75.9002 23.9251 75.9002H53.6471V72.6001H23.9251C21.194 72.6001 18.9715 70.3792 18.9715 67.6501V8.25013C18.9715 5.52105 21.194 3.30013 23.9251 3.30013H56.9496C59.6807 3.30013 61.9033 5.52105 61.9033 8.25013V56.1002H65.2056V8.25013C65.2056 3.70096 61.502 6.10352e-05 56.9494 6.10352e-05Z" fill="#000D7F"/>
<path d="M81.0425 43.9496L64.844 23.7206L62.263 25.7831L78.4615 46.0105C80.5636 48.634 81.7194 51.9307 81.7178 55.2917V95.7002H57.5605C49.0304 95.7002 42.0886 88.7651 42.0886 80.2397V74.2502H38.7861V80.2397C38.7861 90.5835 47.2091 99.0002 57.5605 99.0002H83.3692C84.2823 99.0002 85.0203 98.2627 85.0203 97.3503V55.2935C85.0221 51.1882 83.6103 47.1588 81.0425 43.9496Z" fill="#000D7F"/>
<path d="M43.7329 38.9122C44.892 38.9452 45.9704 39.4269 46.7645 40.2684L68.9554 63.8304L71.3612 61.5683L49.167 38.0045C47.7651 36.5211 45.8678 35.6715 43.8269 35.6137C41.7646 35.5444 39.8442 36.2951 38.3779 37.6795C38.3597 37.6977 38.2275 37.823 38.2111 37.8412C35.3892 40.6692 35.1992 45.1078 37.7736 48.1735L51.9956 64.954V70.0591C51.9939 79.1769 57.732 87.4485 66.2771 90.646L67.4362 87.5556C60.174 84.8381 55.2964 77.8074 55.298 70.0591V64.3501C55.298 63.9607 55.1592 63.5811 54.9067 63.2826L40.2984 46.045C38.8371 44.3059 38.9445 41.7797 40.6287 40.0951C41.4706 39.2999 42.5703 38.9054 43.7329 38.9122Z" fill="#000D7F"/>
<path d="M55.2976 3.3002H51.9951V44.5501H55.2976V3.3002Z" fill="#000D7F"/>
<path d="M47.0418 54.45H43.7393V74.25H47.0418V54.45Z" fill="#000D7F"/>
<path d="M47.0418 1.64984H43.7393V37.9498H47.0418V1.64984Z" fill="#000D7F"/>
<path d="M27.2273 8.25012H23.9248V29.7001H27.2273V8.25012Z" fill="#000D7F"/>
<path d="M35.4832 8.25012H32.1807V21.4502H35.4832V8.25012Z" fill="#000D7F"/>
<path d="M35.4833 54.45H25.576C24.6646 54.45 23.9248 55.1875 23.9248 56.0999V65.9999C23.9248 66.9124 24.6646 67.6498 25.576 67.6498H35.4833C36.3947 67.6498 37.1345 66.9124 37.1345 65.9999V56.0999C37.1345 55.1875 36.3947 54.45 35.4833 54.45ZM33.8321 64.35H27.2273V57.75H33.8321V64.35Z" fill="#000D7F"/>
</g>
<defs>
<clipPath id="clip0_101_2015">
<rect width="99.0734" height="99" fill="white" transform="translate(0.807617 6.10352e-05)"/>
</clipPath>
</defs>
</svg>
