<svg width="35" height="35" viewBox="0 0 35 35" fill="none" xmlns="http://www.w3.org/2000/svg">
<g clip-path="url(#clip0_101_2103)">
<path d="M34.4596 3.47659C34.0321 2.95375 33.3917 2.66589 32.6563 2.66589C32.2566 2.66589 31.8331 2.75001 31.3978 2.91637L1.77099 14.2258C0.198724 14.8259 -0.0130295 15.7263 0.00058899 16.2096C0.0142074 16.6929 0.276697 17.58 1.88047 18.0903C1.89008 18.0932 1.8997 18.0962 1.90931 18.0988L8.05471 19.8575L11.3782 29.361C11.8313 30.6567 12.8484 31.4615 14.033 31.4615C14.7798 31.4615 15.5144 31.1485 16.1574 30.5568L19.9586 27.0568L25.4719 31.4962C25.4725 31.4967 25.4733 31.497 25.4738 31.4975L25.5261 31.5397C25.5309 31.5435 25.536 31.5475 25.5408 31.5512C26.1537 32.0265 26.8226 32.2775 27.476 32.2778H27.4762C28.7529 32.2778 29.7695 31.3328 30.0656 29.8705L34.9199 5.90095C35.1149 4.93884 34.9515 4.07794 34.4596 3.47659ZM10.1106 19.5234L21.9669 13.4664L14.5844 21.3109C14.4634 21.4394 14.3777 21.5966 14.3355 21.7678L12.912 27.534L10.1106 19.5234ZM14.7681 29.0481C14.719 29.0932 14.6695 29.1335 14.6201 29.1706L15.9409 23.8215L18.3433 25.7561L14.7681 29.0481ZM32.91 5.49373L28.0557 29.4636C28.009 29.693 27.8597 30.2267 27.476 30.2267C27.2864 30.2267 27.0482 30.1234 26.8044 29.9357L20.557 24.9054C20.5562 24.9046 20.5551 24.9038 20.5541 24.9033L16.8368 21.9099L27.5128 10.5657C27.8546 10.2025 27.8856 9.64629 27.5863 9.24735C27.2867 8.84841 26.7438 8.72291 26.2997 8.94988L8.74044 17.9205L2.51146 16.1383L32.1292 4.8323C32.3794 4.7367 32.5541 4.71668 32.6563 4.71668C32.7191 4.71668 32.8307 4.72415 32.8721 4.77515C32.9266 4.84164 32.996 5.06835 32.91 5.49373Z" fill="white"/>
</g>
<defs>
<clipPath id="clip0_101_2103">
<rect width="35" height="35" fill="white"/>
</clipPath>
</defs>
</svg>
